<svg width="24" height="24" viewBox="0 0 24 24" fill="#5c5c5c" xmlns="http://www.w3.org/2000/svg">
<path d="M20.5 15.75V3.875C20.5 2.84102 19.6602 2 18.625 2H6.125C4.40195 2 3 3.40156 3 5.125V18.875C3 20.5977 4.40195 22 6.125 22H19.5625C20.0801 22 20.5 21.5801 20.5 21.0625C20.5 20.5449 20.0801 20.125 19.5625 20.125H19.25V17.5098C19.9766 17.25 20.5 16.5625 20.5 15.75ZM17.375 20.125H6.125C5.43594 20.125 4.875 19.5648 4.875 18.875C4.875 18.1852 5.43594 17.625 6.125 17.625H17.375V20.125ZM18.625 15.75H6.125C5.68047 15.75 5.25781 15.8428 4.875 16.0112V5.125C4.875 4.43516 5.43594 3.875 6.125 3.875H18.625V15.75Z" />
</svg>
