<svg width="24" height="24" viewBox="0 0 24 24" fill="#5c5c5c" xmlns="http://www.w3.org/2000/svg">
<path d="M21.9363 12.6266L20.3604 6.31343C20.1564 5.49285 19.6096 4.78548 18.8672 4.37745C18.1206 3.96941 17.2663 3.88677 16.4277 4.15607L15.8981 4.33404C15.6073 4.42953 15.4512 4.74658 15.5508 5.03724L15.7245 5.56265C15.82 5.85348 16.137 6.00992 16.4277 5.91442L16.8833 5.7625C17.2611 5.63661 17.682 5.63661 18.0379 5.82327C18.3939 6.00992 18.6456 6.3268 18.7456 6.71747L20.0784 12.0618C19.3103 11.8231 18.3508 11.6277 17.2611 11.6277C15.872 11.6277 14.2875 11.949 12.639 12.8911H11.3622C9.71614 11.9495 8.12916 11.6265 6.74011 11.6265C5.65041 11.6265 4.69127 11.8219 3.92313 12.0606L5.25592 6.71625C5.35576 6.32558 5.60735 6.00853 5.9678 5.82205C6.31993 5.63696 6.74011 5.63696 7.11863 5.76267L7.57423 5.9146C7.86506 6.01009 8.18194 5.85383 8.27744 5.56282L8.45107 5.03742C8.54934 4.74693 8.39308 4.43023 8.0979 4.33473L7.56833 4.15676C6.76511 3.88763 5.87543 3.97011 5.13299 4.37814C4.39089 4.78617 3.84395 5.49389 3.63976 6.31412L2.06511 12.6266C2.0217 12.8003 2 12.9808 2 13.1649V15.6044C2 17.7557 3.79291 19.558 6.00392 19.558H7.2933C9.38555 19.558 11.1271 17.9606 11.2833 15.8978L11.3832 14.5564H12.6246L12.7245 15.8978C12.8797 17.9293 14.6195 19.558 16.71 19.558H17.9994C20.2086 19.558 21.9998 17.7869 21.9998 15.6027V13.1649C22.0022 12.9808 21.9814 12.8037 21.9363 12.6266ZM9.61891 15.7416C9.52862 16.9605 8.50073 17.8599 7.28531 17.8599H6.00045C4.71141 17.8599 3.66511 16.8354 3.66511 15.5721V13.9184C4.35096 13.6363 5.44483 13.2934 6.74254 13.2934C7.77564 13.2934 8.78722 13.5104 9.75503 13.9358L9.61891 15.7416ZM20.3354 15.6027C20.3354 16.866 19.2894 17.8904 18.0001 17.8904H16.7107C15.4998 17.8904 14.475 16.9615 14.384 15.7721L14.2451 13.9358C15.2175 13.5104 16.2245 13.2934 17.2621 13.2934C18.5602 13.2934 19.6495 13.6363 20.3354 13.9184V15.6027Z"/>
</svg>
