<svg width="24" height="24" viewBox="0 0 24 24" fill="#5c5c5c" xmlns="http://www.w3.org/2000/svg">
<path d="M8.25 12.3711H7.625C6.24453 12.3711 5.125 13.4922 5.125 14.8762V17.9965C5.125 19.3789 6.24609 20.5 7.625 20.5H8.25C8.93984 20.5 9.5 19.9398 9.5 19.248V13.6211C9.5 12.9297 8.94141 12.3711 8.25 12.3711ZM7.625 18.625C7.28039 18.625 7 18.3424 7 17.9953V14.875C7 14.5276 7.28039 14.2453 7.625 14.2453V18.625ZM12 3C6.41016 3 2.17824 7.65234 2 13V17.375C2 17.7205 2.27953 18 2.625 18H3.25C3.59547 18 3.87461 17.718 3.87461 17.3727L3.875 13C3.875 8.51953 7.52109 4.88281 12 4.88281C16.4805 4.88281 20.125 8.51953 20.125 13L20.1247 17.3711C20.0898 17.7188 20.4062 18 20.75 18L21.375 18.0012C21.7205 18.0012 22 17.7217 22 17.3762V12.9648C21.8203 7.65234 17.5898 3 12 3ZM16.375 12.3711H15.75C15.0602 12.3711 14.5 12.9312 14.5 13.6234V19.2484C14.5 19.9398 15.0602 20.5004 15.75 20.5004L16.375 20.5C17.7555 20.5 18.875 19.3789 18.875 17.9949V14.875C18.875 13.4922 17.7539 12.3711 16.375 12.3711ZM17 17.9961C17 18.3438 16.7188 18.625 16.375 18.625V14.2461C16.7196 14.2461 17 14.5286 17 14.8758V17.9961Z"/>
</svg>
