<svg width="24" height="24" viewBox="0 0 24 24" fill="#5c5c5c" xmlns="http://www.w3.org/2000/svg">
<path d="M15.9477 7.87189L21.5603 8.69991C22.025 8.76631 22.4156 9.09439 22.564 9.54355C22.7125 9.99662 22.5914 10.4887 22.2555 10.8246L18.1857 14.8163L19.1465 20.5422C19.2246 21.0109 19.0332 21.4874 18.6427 21.7647C18.256 22.042 17.7443 22.0771 17.3264 21.8545L12.3114 19.1791L7.30032 21.8545C6.87849 22.0771 6.36684 22.042 5.98017 21.7647C5.5935 21.4874 5.39821 21.0109 5.48023 20.5422L6.44105 14.8163L2.37046 10.8246C2.03418 10.4887 1.91466 9.99662 2.0623 9.54355C2.20955 9.09439 2.59895 8.76631 3.06725 8.69991L8.67514 7.87189L11.1905 2.70339C11.3975 2.27313 11.8349 2 12.3114 2C12.7918 2 13.2293 2.27313 13.4363 2.70339L15.9477 7.87189Z"/>
</svg>
